<?xml version="1.0" encoding="utf-8"?>
<!-- Generator: Adobe Illustrator 23.0.0, SVG Export Plug-In . SVG Version: 6.00 Build 0)  -->
<svg version="1.1" baseProfile="tiny" id="Layer_1" xmlns="http://www.w3.org/2000/svg" xmlns:xlink="http://www.w3.org/1999/xlink"
	 x="0px" y="0px" viewBox="0 0 166 31" xml:space="preserve">
<g>
	<g>
		<g>
			<path fill="#00A2AD" d="M20.04,15.91v1.53H7.48c0.13,1.26,0.59,2.21,1.37,2.84c0.78,0.63,1.87,0.95,3.27,0.95
				c1.13,0,2.29-0.17,3.47-0.5c1.19-0.34,2.4-0.84,3.65-1.52v4.14c-1.27,0.48-2.54,0.84-3.81,1.09c-1.27,0.25-2.54,0.37-3.81,0.37
				c-3.04,0-5.41-0.77-7.09-2.32C2.84,20.93,2,18.76,2,15.97c0-2.74,0.83-4.9,2.48-6.47c1.66-1.57,3.93-2.36,6.84-2.36
				c2.64,0,4.75,0.8,6.34,2.39C19.25,11.12,20.04,13.25,20.04,15.91z M14.52,14.12c0-1.02-0.3-1.84-0.89-2.47
				c-0.6-0.63-1.37-0.94-2.33-0.94c-1.04,0-1.89,0.29-2.54,0.88c-0.65,0.59-1.06,1.43-1.22,2.53H14.52z"/>
			<path fill="#00A2AD" d="M28.35,15.76l-6.06-8.21h5.69l3.44,4.98l3.48-4.98h5.69l-6.06,8.18l6.36,8.63H35.2l-3.78-5.31l-3.74,5.31
				h-5.69L28.35,15.76z"/>
			<path fill="#00A2AD" d="M49.3,21.92v8.82h-5.37V7.55h5.37v2.46c0.74-0.98,1.56-1.7,2.46-2.17c0.9-0.47,1.94-0.7,3.11-0.7
				c2.07,0,3.77,0.82,5.1,2.47c1.33,1.65,2,3.76,2,6.36c0,2.59-0.67,4.71-2,6.36c-1.33,1.65-3.03,2.47-5.1,2.47
				c-1.17,0-2.21-0.23-3.11-0.7C50.86,23.63,50.04,22.91,49.3,21.92z M52.87,11.04c-1.15,0-2.03,0.42-2.65,1.27
				c-0.62,0.85-0.92,2.06-0.92,3.65s0.31,2.81,0.92,3.65c0.62,0.85,1.5,1.27,2.65,1.27c1.15,0,2.03-0.42,2.63-1.26
				c0.61-0.84,0.91-2.06,0.91-3.66c0-1.6-0.3-2.82-0.91-3.66C54.9,11.46,54.02,11.04,52.87,11.04z"/>
			<path fill="#00A2AD" d="M73.93,7.14c2.89,0,5.15,0.78,6.78,2.34c1.63,1.56,2.44,3.72,2.44,6.48s-0.81,4.92-2.44,6.48
				c-1.63,1.56-3.88,2.34-6.78,2.34c-2.9,0-5.17-0.78-6.81-2.34c-1.64-1.56-2.45-3.72-2.45-6.48s0.82-4.92,2.45-6.48
				S71.03,7.14,73.93,7.14z M73.93,10.98c-1.19,0-2.1,0.43-2.72,1.28c-0.63,0.86-0.94,2.09-0.94,3.7c0,1.61,0.31,2.84,0.94,3.7
				c0.63,0.86,1.53,1.28,2.72,1.28c1.17,0,2.07-0.43,2.69-1.28c0.62-0.86,0.93-2.09,0.93-3.7c0-1.61-0.31-2.84-0.93-3.7
				C75.99,11.41,75.1,10.98,73.93,10.98z"/>
			<path fill="#00A2AD" d="M99.53,12.13c-0.47-0.22-0.94-0.38-1.4-0.49c-0.47-0.11-0.93-0.16-1.4-0.16c-1.38,0-2.44,0.44-3.19,1.33
				c-0.75,0.89-1.12,2.15-1.12,3.8v7.74h-5.37V7.55h5.37v2.76c0.69-1.1,1.48-1.9,2.38-2.41c0.9-0.51,1.97-0.76,3.22-0.76
				c0.18,0,0.38,0.01,0.59,0.02s0.52,0.05,0.92,0.1L99.53,12.13z"/>
			<path fill="#00A2AD" d="M108.92,2.78v4.77h5.54v3.84h-5.54v7.13c0,0.78,0.16,1.31,0.47,1.58c0.31,0.28,0.93,0.41,1.85,0.41H114
				v3.84h-4.61c-2.12,0-3.62-0.44-4.51-1.33c-0.89-0.89-1.33-2.39-1.33-4.51v-7.13h-2.67V7.55h2.67V2.78H108.92z"/>
			<path fill="#2B9EAA" d="M117.75,7.55h5.37v16.81h-5.37V7.55z"/>
			<path fill="#00A2AD" d="M139.34,1v3.53h-2.97c-0.76,0-1.29,0.14-1.59,0.41c-0.3,0.28-0.45,0.75-0.45,1.43v1.17h4.59v3.84h-4.59
				v12.97h-5.37V11.39h-2.67V7.55h2.67V6.38c0-1.83,0.51-3.18,1.53-4.06c1.02-0.88,2.6-1.31,4.74-1.31H139.34z"/>
			<path fill="#00A2AD" d="M139.45,7.55h5.37l4.52,11.41l3.84-11.41h5.37l-7.07,18.4c-0.71,1.87-1.54,3.18-2.48,3.92
				c-0.95,0.75-2.19,1.12-3.74,1.12h-3.11v-3.53h1.68c0.91,0,1.57-0.15,1.99-0.44c0.41-0.29,0.74-0.81,0.97-1.56l0.15-0.47
				L139.45,7.55z"/>
		</g>
		<g>
			<path fill="#2B9EAA" d="M20.04,15.91v1.53H7.48c0.13,1.26,0.59,2.21,1.37,2.84c0.78,0.63,1.87,0.95,3.27,0.95
				c1.13,0,2.29-0.17,3.47-0.5c1.19-0.34,2.4-0.84,3.65-1.52v4.14c-1.27,0.48-2.54,0.84-3.81,1.09c-1.27,0.25-2.54,0.37-3.81,0.37
				c-3.04,0-5.41-0.77-7.09-2.32C2.84,20.93,2,18.76,2,15.97c0-2.74,0.83-4.9,2.48-6.47c1.66-1.57,3.93-2.36,6.84-2.36
				c2.64,0,4.75,0.8,6.34,2.39C19.25,11.12,20.04,13.25,20.04,15.91z M14.52,14.12c0-1.02-0.3-1.84-0.89-2.47
				c-0.6-0.63-1.37-0.94-2.33-0.94c-1.04,0-1.89,0.29-2.54,0.88c-0.65,0.59-1.06,1.43-1.22,2.53H14.52z"/>
			<path fill="#2B9EAA" d="M28.35,15.76l-6.06-8.21h5.69l3.44,4.98l3.48-4.98h5.69l-6.06,8.18l6.36,8.63H35.2l-3.78-5.31l-3.74,5.31
				h-5.69L28.35,15.76z"/>
			<path fill="#2B9EAA" d="M49.3,21.92v8.82h-5.37V7.55h5.37v2.46c0.74-0.98,1.56-1.7,2.46-2.17c0.9-0.47,1.94-0.7,3.11-0.7
				c2.07,0,3.77,0.82,5.1,2.47c1.33,1.65,2,3.76,2,6.36c0,2.59-0.67,4.71-2,6.36c-1.33,1.65-3.03,2.47-5.1,2.47
				c-1.17,0-2.21-0.23-3.11-0.7C50.86,23.63,50.04,22.91,49.3,21.92z M52.87,11.04c-1.15,0-2.03,0.42-2.65,1.27
				c-0.62,0.85-0.92,2.06-0.92,3.65s0.31,2.81,0.92,3.65c0.62,0.85,1.5,1.27,2.65,1.27c1.15,0,2.03-0.42,2.63-1.26
				c0.61-0.84,0.91-2.06,0.91-3.66c0-1.6-0.3-2.82-0.91-3.66C54.9,11.46,54.02,11.04,52.87,11.04z"/>
			<path fill="#2B9EAA" d="M73.93,7.14c2.89,0,5.15,0.78,6.78,2.34c1.63,1.56,2.44,3.72,2.44,6.48s-0.81,4.92-2.44,6.48
				c-1.63,1.56-3.88,2.34-6.78,2.34c-2.9,0-5.17-0.78-6.81-2.34c-1.64-1.56-2.45-3.72-2.45-6.48s0.82-4.92,2.45-6.48
				S71.03,7.14,73.93,7.14z M73.93,10.98c-1.19,0-2.1,0.43-2.72,1.28c-0.63,0.86-0.94,2.09-0.94,3.7c0,1.61,0.31,2.84,0.94,3.7
				c0.63,0.86,1.53,1.28,2.72,1.28c1.17,0,2.07-0.43,2.69-1.28c0.62-0.86,0.93-2.09,0.93-3.7c0-1.61-0.31-2.84-0.93-3.7
				C75.99,11.41,75.1,10.98,73.93,10.98z"/>
			<path fill="#2B9EAA" d="M99.53,12.13c-0.47-0.22-0.94-0.38-1.4-0.49c-0.47-0.11-0.93-0.16-1.4-0.16c-1.38,0-2.44,0.44-3.19,1.33
				c-0.75,0.89-1.12,2.15-1.12,3.8v7.74h-5.37V7.55h5.37v2.76c0.69-1.1,1.48-1.9,2.38-2.41c0.9-0.51,1.97-0.76,3.22-0.76
				c0.18,0,0.38,0.01,0.59,0.02s0.52,0.05,0.92,0.1L99.53,12.13z"/>
			<path fill="#2B9EAA" d="M108.92,2.78v4.77h5.54v3.84h-5.54v7.13c0,0.78,0.16,1.31,0.47,1.58c0.31,0.28,0.93,0.41,1.85,0.41H114
				v3.84h-4.61c-2.12,0-3.62-0.44-4.51-1.33c-0.89-0.89-1.33-2.39-1.33-4.51v-7.13h-2.67V7.55h2.67V2.78H108.92z"/>
			<g>
				<path fill="#93D150" d="M117.75,0.01h5.37v5.37h-5.37V0.01z"/>
			</g>
			<path fill="#2B9EAA" d="M139.34,1v3.53h-2.97c-0.76,0-1.29,0.14-1.59,0.41c-0.3,0.28-0.45,0.75-0.45,1.43v1.17h4.59v3.84h-4.59
				v12.97h-5.37V11.39h-2.67V7.55h2.67V6.38c0-1.83,0.51-3.18,1.53-4.06c1.02-0.88,2.6-1.31,4.74-1.31H139.34z"/>
			<path fill="#2B9EAA" d="M139.45,7.55h5.37l4.52,11.41l3.84-11.41h5.37l-7.07,18.4c-0.71,1.87-1.54,3.18-2.48,3.92
				c-0.95,0.75-2.19,1.12-3.74,1.12h-3.11v-3.53h1.68c0.91,0,1.57-0.15,1.99-0.44c0.41-0.29,0.74-0.81,0.97-1.56l0.15-0.47
				L139.45,7.55z"/>
			<g>
				<path fill="#93D150" d="M158.63,18.98H164v5.37h-5.37V18.98z"/>
			</g>
		</g>
	</g>
</g>
</svg>
